<svg viewBox="0 0 92.0899658203125 19.5810546875" version="1.1" xmlns="http://www.w3.org/2000/svg" class=" glyph-box" height="16" width="16"><g transform="matrix(1 0 0 1 -8.740048828125055 45.0205078125)"><path d="M28.418-35.2051C28.418-40.625 24.0234-44.9707 18.5059-44.9707C13.1348-44.9707 8.74023-40.625 8.74023-35.2051C8.74023-29.7852 13.1348-25.4395 18.5059-25.4395C24.0234-25.4395 28.418-29.7852 28.418-35.2051ZM64.5508-35.2051C64.5508-40.625 60.2051-44.9707 54.7852-44.9707C49.4141-44.9707 45.0684-40.625 45.0684-35.2051C45.0684-29.7852 49.4141-25.4395 54.7852-25.4395C60.2051-25.4395 64.5508-29.7852 64.5508-35.2051ZM100.83-35.2051C100.83-40.625 96.4844-44.9707 91.0645-44.9707C85.5469-44.9707 81.2012-40.625 81.2012-35.2051C81.2012-29.7852 85.5469-25.4395 91.0645-25.4395C96.4844-25.4395 100.83-29.7852 100.83-35.2051Z"></path></g></svg>