<svg class="square-grid" xmlns="http://www.w3.org/2000/svg" viewBox="0 0 64 64" height="22" width="22" aria-hidden="true"><path d="M2.54982858,9.5141143 L7.18154287,9.5141143 C8.96725716,9.5141143 9.60897144,8.87234287 9.60897144,7.11457144 L9.60897144,2.48285715 C9.60897144,0.697142858 8.96725716,0.0554285715 7.18154287,0.0554285715 L2.54982858,0.0554285715 C0.792000001,0.0554285715 0.150285715,0.697142858 0.150285715,2.48285715 L0.150285715,7.11457144 C0.150285715,8.87234287 0.792000001,9.5141143 2.54982858,9.5141143 Z M19.2350857,9.5141143 L23.8668,9.5141143 C25.6245715,9.5141143 26.2663429,8.87234287 26.2663429,7.11457144 L26.2663429,2.48285715 C26.2663429,0.697142858 25.6245715,0.0554285715 23.8668,0.0554285715 L19.2350857,0.0554285715 C17.4493715,0.0554285715 16.8076572,0.697142858 16.8076572,2.48285715 L16.8076572,7.11457144 C16.8076572,8.87234287 17.4493715,9.5141143 19.2350857,9.5141143 Z M35.8924572,9.5141143 L40.5241715,9.5141143 C42.2819429,9.5141143 42.9237144,8.87234287 42.9237144,7.11457144 L42.9237144,2.48285715 C42.9237144,0.697142858 42.2819429,0.0554285715 40.5241715,0.0554285715 L35.8924572,0.0554285715 C34.1346286,0.0554285715 33.4929143,0.697142858 33.4929143,2.48285715 L33.4929143,7.11457144 C33.4929143,8.87234287 34.1346286,9.5141143 35.8924572,9.5141143 Z M52.5496001,9.5141143 L57.1816001,9.5141143 C58.9673144,9.5141143 59.6090287,8.87234287 59.6090287,7.11457144 L59.6090287,2.48285715 C59.6090287,0.697142858 58.9673144,0.0554285715 57.1816001,0.0554285715 L52.5496001,0.0554285715 C50.7918858,0.0554285715 50.1502858,0.697142858 50.1502858,2.48285715 L50.1502858,7.11457144 C50.1502858,8.87234287 50.7918858,9.5141143 52.5496001,9.5141143 Z M2.68931429,26.1714858 L7.32102858,26.1714858 C9.10674287,26.1714858 9.74845716,25.5297143 9.74845716,23.7719429 L9.74845716,19.1402286 C9.74845716,17.3824 9.10674287,16.7406857 7.32102858,16.7406857 L2.68931429,16.7406857 C0.931542859,16.7406857 0.289771429,17.3824 0.289771429,19.1402286 L0.289771429,23.7719429 C0.289771429,25.5297143 0.931542859,26.1714858 2.68931429,26.1714858 Z M19.3746286,26.1714858 L24.0062858,26.1714858 C25.7641143,26.1714858 26.4058286,25.5297143 26.4058286,23.7719429 L26.4058286,19.1402286 C26.4058286,17.3824 25.7641143,16.7406857 24.0062858,16.7406857 L19.3746286,16.7406857 C17.5889143,16.7406857 16.9471429,17.3824 16.9471429,19.1402286 L16.9471429,23.7719429 C16.9471429,25.5297143 17.5889143,26.1714858 19.3746286,26.1714858 Z M36.0319429,26.1714858 L40.6636572,26.1714858 C42.4214858,26.1714858 43.0632001,25.5297143 43.0632001,23.7719429 L43.0632001,19.1402286 C43.0632001,17.3824 42.4214858,16.7406857 40.6636572,16.7406857 L36.0319429,16.7406857 C34.2741715,16.7406857 33.6324001,17.3824 33.6324001,19.1402286 L33.6324001,23.7719429 C33.6324001,25.5297143 34.2741715,26.1714858 36.0319429,26.1714858 Z M52.7170287,26.1714858 L57.3210287,26.1714858 C59.106743,26.1714858 59.7484572,25.5297143 59.7484572,23.7719429 L59.7484572,19.1402286 C59.7484572,17.3824 59.106743,16.7406857 57.3210287,16.7406857 L52.7170287,16.7406857 C50.9313144,16.7406857 50.2896001,17.3824 50.2896001,19.1402286 L50.2896001,23.7719429 C50.2896001,25.5297143 50.9313144,26.1714858 52.7170287,26.1714858 Z M2.68931429,42.8567372 L7.32102858,42.8567372 C9.10674287,42.8567372 9.74845716,42.2150001 9.74845716,40.4292858 L9.74845716,35.8254858 C9.74845716,34.0397715 9.10674287,33.3980572 7.32102858,33.3980572 L2.68931429,33.3980572 C0.931542859,33.3980572 0.289771429,34.0397715 0.289771429,35.8254858 L0.289771429,40.4292858 C0.289771429,42.2150001 0.931542859,42.8567372 2.68931429,42.8567372 Z M19.3746286,42.8567372 L24.0062858,42.8567372 C25.7641143,42.8567372 26.4058286,42.2150001 26.4058286,40.4292858 L26.4058286,35.8254858 C26.4058286,34.0397715 25.7641143,33.3980572 24.0062858,33.3980572 L19.3746286,33.3980572 C17.5889143,33.3980572 16.9471429,34.0397715 16.9471429,35.8254858 L16.9471429,40.4292858 C16.9471429,42.2150001 17.5889143,42.8567372 19.3746286,42.8567372 Z M36.0319429,42.8567372 L40.6636572,42.8567372 C42.4214858,42.8567372 43.0632001,42.2150001 43.0632001,40.4292858 L43.0632001,35.8254858 C43.0632001,34.0397715 42.4214858,33.3980572 40.6636572,33.3980572 L36.0319429,33.3980572 C34.2741715,33.3980572 33.6324001,34.0397715 33.6324001,35.8254858 L33.6324001,40.4292858 C33.6324001,42.2150001 34.2741715,42.8567372 36.0319429,42.8567372 Z M52.7170287,42.8567372 L57.3210287,42.8567372 C59.106743,42.8567372 59.7484572,42.2150001 59.7484572,40.4292858 L59.7484572,35.8254858 C59.7484572,34.0397715 59.106743,33.3980572 57.3210287,33.3980572 L52.7170287,33.3980572 C50.9313144,33.3980572 50.2896001,34.0397715 50.2896001,35.8254858 L50.2896001,40.4292858 C50.2896001,42.2150001 50.9313144,42.8567372 52.7170287,42.8567372 Z" transform="translate(2 10.571)"></path></svg>