<svg viewBox="0 0 66.9984130859375 87.7451171875" version="1.1" xmlns="http://www.w3.org/2000/svg" class=" glyph-box" aria-hidden="true" style="height: 18.6798px; width: 14.2631px;"><g transform="matrix(1 0 0 1 -3.167583007812482 79.1025390625)"><path d="M70.166-35.2539C70.166-37.2559 69.4336-38.916 67.8711-40.4785L30.2734-77.2461C29.0039-78.5156 27.4902-79.1016 25.6836-79.1016C22.0215-79.1016 19.043-76.2207 19.043-72.5586C19.043-70.752 19.8242-69.0918 21.1426-67.7734L54.541-35.3027L21.1426-2.73438C19.8242-1.41602 19.043 0.195312 19.043 2.05078C19.043 5.71289 22.0215 8.64258 25.6836 8.64258C27.4902 8.64258 29.0039 8.00781 30.2734 6.73828L67.8711-30.0293C69.4824-31.5918 70.166-33.252 70.166-35.2539Z"></path></g></svg>